<svg xmlns="http://www.w3.org/2000/svg" viewBox="0 0 448 336" width="448" height="336" shape-rendering="crispEdges">
<rect width="100%" height="100%" fill="#1c1c24"/>
<rect x="0" y="112" width="16" height="16" fill="#f2f2f5"/>
<rect x="16" y="112" width="16" height="16" fill="#f2f2f5"/>
<rect x="32" y="112" width="16" height="16" fill="#0f0f12"/>
<rect x="48" y="112" width="16" height="16" fill="#0f0f12"/>
<rect x="64" y="112" width="16" height="16" fill="#0f0f12"/>
<rect x="80" y="112" width="16" height="16" fill="#f2f2f5"/>
<rect x="96" y="112" width="16" height="16" fill="#f2f2f5"/>
<rect x="0" y="128" width="16" height="16" fill="#f2f2f5"/>
<rect x="16" y="128" width="16" height="16" fill="#f2f2f5"/>
<rect x="32" y="128" width="16" height="16" fill="#f2f2f5"/>
<rect x="48" y="128" width="16" height="16" fill="#0f0f12"/>
<rect x="64" y="128" width="16" height="16" fill="#f2f2f5"/>
<rect x="80" y="128" width="16" height="16" fill="#f2f2f5"/>
<rect x="96" y="128" width="16" height="16" fill="#f2f2f5"/>
<rect x="0" y="144" width="16" height="16" fill="#f2f2f5"/>
<rect x="16" y="144" width="16" height="16" fill="#f2f2f5"/>
<rect x="32" y="144" width="16" height="16" fill="#f2f2f5"/>
<rect x="48" y="144" width="16" height="16" fill="#f2f2f5"/>
<rect x="64" y="144" width="16" height="16" fill="#f2f2f5"/>
<rect x="80" y="144" width="16" height="16" fill="#f2f2f5"/>
<rect x="96" y="144" width="16" height="16" fill="#f2f2f5"/>
<rect x="0" y="160" width="16" height="16" fill="#f2f2f5"/>
<rect x="16" y="160" width="16" height="16" fill="#f2f2f5"/>
<rect x="32" y="160" width="16" height="16" fill="#f2f2f5"/>
<rect x="48" y="160" width="16" height="16" fill="#f2f2f5"/>
<rect x="64" y="160" width="16" height="16" fill="#f2f2f5"/>
<rect x="80" y="160" width="16" height="16" fill="#f2f2f5"/>
<rect x="96" y="160" width="16" height="16" fill="#f2f2f5"/>
<rect x="0" y="176" width="16" height="16" fill="#f2f2f5"/>
<rect x="16" y="176" width="16" height="16" fill="#f2f2f5"/>
<rect x="32" y="176" width="16" height="16" fill="#f2f2f5"/>
<rect x="48" y="176" width="16" height="16" fill="#f2f2f5"/>
<rect x="64" y="176" width="16" height="16" fill="#f2f2f5"/>
<rect x="80" y="176" width="16" height="16" fill="#f2f2f5"/>
<rect x="96" y="176" width="16" height="16" fill="#f2f2f5"/>
<rect x="0" y="192" width="16" height="16" fill="#f2f2f5"/>
<rect x="16" y="192" width="16" height="16" fill="#f2f2f5"/>
<rect x="32" y="192" width="16" height="16" fill="#f2f2f5"/>
<rect x="48" y="192" width="16" height="16" fill="#f2f2f5"/>
<rect x="64" y="192" width="16" height="16" fill="#f2f2f5"/>
<rect x="80" y="192" width="16" height="16" fill="#f2f2f5"/>
<rect x="96" y="192" width="16" height="16" fill="#f2f2f5"/>
<rect x="0" y="208" width="16" height="16" fill="#f2f2f5"/>
<rect x="16" y="208" width="16" height="16" fill="#f2f2f5"/>
<rect x="32" y="208" width="16" height="16" fill="#f2f2f5"/>
<rect x="48" y="208" width="16" height="16" fill="#f2f2f5"/>
<rect x="64" y="208" width="16" height="16" fill="#f2f2f5"/>
<rect x="80" y="208" width="16" height="16" fill="#f2f2f5"/>
<rect x="96" y="208" width="16" height="16" fill="#f2f2f5"/>
<rect x="224" y="112" width="16" height="16" fill="#f2f2f5"/>
<rect x="240" y="112" width="16" height="16" fill="#f2f2f5"/>
<rect x="256" y="112" width="16" height="16" fill="#f2f2f5"/>
<rect x="272" y="112" width="16" height="16" fill="#f2f2f5"/>
<rect x="288" y="112" width="16" height="16" fill="#f2f2f5"/>
<rect x="304" y="112" width="16" height="16" fill="#f2f2f5"/>
<rect x="320" y="112" width="16" height="16" fill="#f2f2f5"/>
<rect x="224" y="128" width="16" height="16" fill="#f2f2f5"/>
<rect x="240" y="128" width="16" height="16" fill="#f2f2f5"/>
<rect x="256" y="128" width="16" height="16" fill="#f2f2f5"/>
<rect x="272" y="128" width="16" height="16" fill="#f2f2f5"/>
<rect x="288" y="128" width="16" height="16" fill="#f2f2f5"/>
<rect x="304" y="128" width="16" height="16" fill="#f2f2f5"/>
<rect x="320" y="128" width="16" height="16" fill="#f2f2f5"/>
<rect x="224" y="144" width="16" height="16" fill="#f2f2f5"/>
<rect x="240" y="144" width="16" height="16" fill="#f2f2f5"/>
<rect x="256" y="144" width="16" height="16" fill="#f2f2f5"/>
<rect x="272" y="144" width="16" height="16" fill="#f2f2f5"/>
<rect x="288" y="144" width="16" height="16" fill="#f2f2f5"/>
<rect x="304" y="144" width="16" height="16" fill="#f2f2f5"/>
<rect x="320" y="144" width="16" height="16" fill="#923f3f"/>
<rect x="224" y="160" width="16" height="16" fill="#f2f2f5"/>
<rect x="240" y="160" width="16" height="16" fill="#f2f2f5"/>
<rect x="256" y="160" width="16" height="16" fill="#f2f2f5"/>
<rect x="272" y="160" width="16" height="16" fill="#f2f2f5"/>
<rect x="288" y="160" width="16" height="16" fill="#f2f2f5"/>
<rect x="304" y="160" width="16" height="16" fill="#f2f2f5"/>
<rect x="320" y="160" width="16" height="16" fill="#923f3f"/>
<rect x="224" y="176" width="16" height="16" fill="#f2f2f5"/>
<rect x="240" y="176" width="16" height="16" fill="#f2f2f5"/>
<rect x="256" y="176" width="16" height="16" fill="#f2f2f5"/>
<rect x="272" y="176" width="16" height="16" fill="#f2f2f5"/>
<rect x="288" y="176" width="16" height="16" fill="#f2f2f5"/>
<rect x="304" y="176" width="16" height="16" fill="#f2f2f5"/>
<rect x="320" y="176" width="16" height="16" fill="#923f3f"/>
<rect x="224" y="192" width="16" height="16" fill="#f2f2f5"/>
<rect x="240" y="192" width="16" height="16" fill="#f2f2f5"/>
<rect x="256" y="192" width="16" height="16" fill="#f2f2f5"/>
<rect x="272" y="192" width="16" height="16" fill="#f2f2f5"/>
<rect x="288" y="192" width="16" height="16" fill="#f2f2f5"/>
<rect x="304" y="192" width="16" height="16" fill="#f2f2f5"/>
<rect x="320" y="192" width="16" height="16" fill="#923f3f"/>
<rect x="224" y="208" width="16" height="16" fill="#f2f2f5"/>
<rect x="240" y="208" width="16" height="16" fill="#f2f2f5"/>
<rect x="256" y="208" width="16" height="16" fill="#f2f2f5"/>
<rect x="272" y="208" width="16" height="16" fill="#f2f2f5"/>
<rect x="288" y="208" width="16" height="16" fill="#f2f2f5"/>
<rect x="304" y="208" width="16" height="16" fill="#f2f2f5"/>
<rect x="320" y="208" width="16" height="16" fill="#f2f2f5"/>
<rect x="112" y="224" width="16" height="16" fill="#f2f2f5"/>
<rect x="128" y="224" width="16" height="16" fill="#44444f"/>
<rect x="144" y="224" width="16" height="16" fill="#f2f2f5"/>
<rect x="160" y="224" width="16" height="16" fill="#f2f2f5"/>
<rect x="176" y="224" width="16" height="16" fill="#f2f2f5"/>
<rect x="192" y="224" width="16" height="16" fill="#44444f"/>
<rect x="208" y="224" width="16" height="16" fill="#f2f2f5"/>
<rect x="112" y="240" width="16" height="16" fill="#f2f2f5"/>
<rect x="128" y="240" width="16" height="16" fill="#44444f"/>
<rect x="144" y="240" width="16" height="16" fill="#f2f2f5"/>
<rect x="160" y="240" width="16" height="16" fill="#f2f2f5"/>
<rect x="176" y="240" width="16" height="16" fill="#f2f2f5"/>
<rect x="192" y="240" width="16" height="16" fill="#9b59b6"/>
<rect x="208" y="240" width="16" height="16" fill="#f2f2f5"/>
<rect x="112" y="256" width="16" height="16" fill="#f2f2f5"/>
<rect x="128" y="256" width="16" height="16" fill="#44444f"/>
<rect x="144" y="256" width="16" height="16" fill="#f2f2f5"/>
<rect x="160" y="256" width="16" height="16" fill="#f2f2f5"/>
<rect x="176" y="256" width="16" height="16" fill="#f2f2f5"/>
<rect x="192" y="256" width="16" height="16" fill="#44444f"/>
<rect x="208" y="256" width="16" height="16" fill="#f2f2f5"/>
<rect x="112" y="272" width="16" height="16" fill="#f2f2f5"/>
<rect x="128" y="272" width="16" height="16" fill="#44444f"/>
<rect x="144" y="272" width="16" height="16" fill="#f2f2f5"/>
<rect x="160" y="272" width="16" height="16" fill="#f2f2f5"/>
<rect x="176" y="272" width="16" height="16" fill="#f2f2f5"/>
<rect x="192" y="272" width="16" height="16" fill="#44444f"/>
<rect x="208" y="272" width="16" height="16" fill="#f2f2f5"/>
<rect x="112" y="288" width="16" height="16" fill="#f2f2f5"/>
<rect x="128" y="288" width="16" height="16" fill="#44444f"/>
<rect x="144" y="288" width="16" height="16" fill="#44444f"/>
<rect x="160" y="288" width="16" height="16" fill="#44444f"/>
<rect x="176" y="288" width="16" height="16" fill="#44444f"/>
<rect x="192" y="288" width="16" height="16" fill="#44444f"/>
<rect x="208" y="288" width="16" height="16" fill="#f2f2f5"/>
<rect x="112" y="304" width="16" height="16" fill="#f2f2f5"/>
<rect x="128" y="304" width="16" height="16" fill="#f2f2f5"/>
<rect x="144" y="304" width="16" height="16" fill="#f2f2f5"/>
<rect x="160" y="304" width="16" height="16" fill="#f2f2f5"/>
<rect x="176" y="304" width="16" height="16" fill="#f2f2f5"/>
<rect x="192" y="304" width="16" height="16" fill="#f2f2f5"/>
<rect x="208" y="304" width="16" height="16" fill="#f2f2f5"/>
<rect x="112" y="320" width="16" height="16" fill="#f2f2f5"/>
<rect x="128" y="320" width="16" height="16" fill="#f2f2f5"/>
<rect x="144" y="320" width="16" height="16" fill="#f2f2f5"/>
<rect x="160" y="320" width="16" height="16" fill="#f2f2f5"/>
<rect x="176" y="320" width="16" height="16" fill="#f2f2f5"/>
<rect x="192" y="320" width="16" height="16" fill="#f2f2f5"/>
<rect x="208" y="320" width="16" height="16" fill="#f2f2f5"/>
<rect x="112" y="0" width="16" height="16" fill="#f2f2f5"/>
<rect x="128" y="0" width="16" height="16" fill="#f2f2f5"/>
<rect x="144" y="0" width="16" height="16" fill="#f2f2f5"/>
<rect x="160" y="0" width="16" height="16" fill="#f2f2f5"/>
<rect x="176" y="0" width="16" height="16" fill="#f2f2f5"/>
<rect x="192" y="0" width="16" height="16" fill="#f2f2f5"/>
<rect x="208" y="0" width="16" height="16" fill="#f2f2f5"/>
<rect x="112" y="16" width="16" height="16" fill="#f2f2f5"/>
<rect x="128" y="16" width="16" height="16" fill="#f2f2f5"/>
<rect x="144" y="16" width="16" height="16" fill="#f2f2f5"/>
<rect x="160" y="16" width="16" height="16" fill="#f2f2f5"/>
<rect x="176" y="16" width="16" height="16" fill="#f2f2f5"/>
<rect x="192" y="16" width="16" height="16" fill="#f2f2f5"/>
<rect x="208" y="16" width="16" height="16" fill="#f2f2f5"/>
<rect x="112" y="32" width="16" height="16" fill="#f2f2f5"/>
<rect x="128" y="32" width="16" height="16" fill="#f2f2f5"/>
<rect x="144" y="32" width="16" height="16" fill="#923f3f"/>
<rect x="160" y="32" width="16" height="16" fill="#923f3f"/>
<rect x="176" y="32" width="16" height="16" fill="#923f3f"/>
<rect x="192" y="32" width="16" height="16" fill="#923f3f"/>
<rect x="208" y="32" width="16" height="16" fill="#923f3f"/>
<rect x="112" y="48" width="16" height="16" fill="#f2f2f5"/>
<rect x="128" y="48" width="16" height="16" fill="#f2f2f5"/>
<rect x="144" y="48" width="16" height="16" fill="#923f3f"/>
<rect x="160" y="48" width="16" height="16" fill="#923f3f"/>
<rect x="176" y="48" width="16" height="16" fill="#923f3f"/>
<rect x="192" y="48" width="16" height="16" fill="#923f3f"/>
<rect x="208" y="48" width="16" height="16" fill="#923f3f"/>
<rect x="112" y="64" width="16" height="16" fill="#f2f2f5"/>
<rect x="128" y="64" width="16" height="16" fill="#f2f2f5"/>
<rect x="144" y="64" width="16" height="16" fill="#923f3f"/>
<rect x="160" y="64" width="16" height="16" fill="#923f3f"/>
<rect x="176" y="64" width="16" height="16" fill="#923f3f"/>
<rect x="192" y="64" width="16" height="16" fill="#923f3f"/>
<rect x="208" y="64" width="16" height="16" fill="#923f3f"/>
<rect x="112" y="80" width="16" height="16" fill="#f2f2f5"/>
<rect x="128" y="80" width="16" height="16" fill="#f2f2f5"/>
<rect x="144" y="80" width="16" height="16" fill="#923f3f"/>
<rect x="160" y="80" width="16" height="16" fill="#923f3f"/>
<rect x="176" y="80" width="16" height="16" fill="#923f3f"/>
<rect x="192" y="80" width="16" height="16" fill="#923f3f"/>
<rect x="208" y="80" width="16" height="16" fill="#923f3f"/>
<rect x="112" y="96" width="16" height="16" fill="#f2f2f5"/>
<rect x="128" y="96" width="16" height="16" fill="#f2f2f5"/>
<rect x="144" y="96" width="16" height="16" fill="#f2f2f5"/>
<rect x="160" y="96" width="16" height="16" fill="#f2f2f5"/>
<rect x="176" y="96" width="16" height="16" fill="#f2f2f5"/>
<rect x="192" y="96" width="16" height="16" fill="#f2f2f5"/>
<rect x="208" y="96" width="16" height="16" fill="#f2f2f5"/>
<rect x="336" y="112" width="16" height="16" fill="#27ae60"/>
<rect x="352" y="112" width="16" height="16" fill="#44444f"/>
<rect x="368" y="112" width="16" height="16" fill="#44444f"/>
<rect x="384" y="112" width="16" height="16" fill="#44444f"/>
<rect x="400" y="112" width="16" height="16" fill="#44444f"/>
<rect x="416" y="112" width="16" height="16" fill="#44444f"/>
<rect x="432" y="112" width="16" height="16" fill="#f2f2f5"/>
<rect x="336" y="128" width="16" height="16" fill="#f2f2f5"/>
<rect x="352" y="128" width="16" height="16" fill="#f2f2f5"/>
<rect x="368" y="128" width="16" height="16" fill="#f2f2f5"/>
<rect x="384" y="128" width="16" height="16" fill="#f2f2f5"/>
<rect x="400" y="128" width="16" height="16" fill="#f2f2f5"/>
<rect x="416" y="128" width="16" height="16" fill="#f2f2f5"/>
<rect x="432" y="128" width="16" height="16" fill="#f2f2f5"/>
<rect x="336" y="144" width="16" height="16" fill="#f2f2f5"/>
<rect x="352" y="144" width="16" height="16" fill="#f2f2f5"/>
<rect x="368" y="144" width="16" height="16" fill="#f2f2f5"/>
<rect x="384" y="144" width="16" height="16" fill="#f2f2f5"/>
<rect x="400" y="144" width="16" height="16" fill="#f2f2f5"/>
<rect x="416" y="144" width="16" height="16" fill="#f2f2f5"/>
<rect x="432" y="144" width="16" height="16" fill="#f2f2f5"/>
<rect x="336" y="160" width="16" height="16" fill="#0f0f12"/>
<rect x="352" y="160" width="16" height="16" fill="#f2f2f5"/>
<rect x="368" y="160" width="16" height="16" fill="#f2f2f5"/>
<rect x="384" y="160" width="16" height="16" fill="#f2f2f5"/>
<rect x="400" y="160" width="16" height="16" fill="#f2f2f5"/>
<rect x="416" y="160" width="16" height="16" fill="#f2f2f5"/>
<rect x="432" y="160" width="16" height="16" fill="#f2f2f5"/>
<rect x="336" y="176" width="16" height="16" fill="#f2f2f5"/>
<rect x="352" y="176" width="16" height="16" fill="#f2f2f5"/>
<rect x="368" y="176" width="16" height="16" fill="#f2f2f5"/>
<rect x="384" y="176" width="16" height="16" fill="#f2f2f5"/>
<rect x="400" y="176" width="16" height="16" fill="#f2f2f5"/>
<rect x="416" y="176" width="16" height="16" fill="#f2f2f5"/>
<rect x="432" y="176" width="16" height="16" fill="#f2f2f5"/>
<rect x="336" y="192" width="16" height="16" fill="#f2f2f5"/>
<rect x="352" y="192" width="16" height="16" fill="#f2f2f5"/>
<rect x="368" y="192" width="16" height="16" fill="#f2f2f5"/>
<rect x="384" y="192" width="16" height="16" fill="#f2f2f5"/>
<rect x="400" y="192" width="16" height="16" fill="#f2f2f5"/>
<rect x="416" y="192" width="16" height="16" fill="#f2f2f5"/>
<rect x="432" y="192" width="16" height="16" fill="#f2f2f5"/>
<rect x="336" y="208" width="16" height="16" fill="#f2f2f5"/>
<rect x="352" y="208" width="16" height="16" fill="#f2f2f5"/>
<rect x="368" y="208" width="16" height="16" fill="#f2f2f5"/>
<rect x="384" y="208" width="16" height="16" fill="#f2f2f5"/>
<rect x="400" y="208" width="16" height="16" fill="#f2f2f5"/>
<rect x="416" y="208" width="16" height="16" fill="#f2f2f5"/>
<rect x="432" y="208" width="16" height="16" fill="#f2f2f5"/>
<rect x="112" y="112" width="16" height="16" fill="#f2f2f5"/>
<rect x="128" y="112" width="16" height="16" fill="#f2f2f5"/>
<rect x="144" y="112" width="16" height="16" fill="#f2f2f5"/>
<rect x="160" y="112" width="16" height="16" fill="#f2f2f5"/>
<rect x="176" y="112" width="16" height="16" fill="#f2f2f5"/>
<rect x="192" y="112" width="16" height="16" fill="#f2f2f5"/>
<rect x="208" y="112" width="16" height="16" fill="#f2f2f5"/>
<rect x="112" y="128" width="16" height="16" fill="#f2f2f5"/>
<rect x="128" y="128" width="16" height="16" fill="#f2f2f5"/>
<rect x="144" y="128" width="16" height="16" fill="#f2f2f5"/>
<rect x="160" y="128" width="16" height="16" fill="#f2f2f5"/>
<rect x="176" y="128" width="16" height="16" fill="#f2f2f5"/>
<rect x="192" y="128" width="16" height="16" fill="#f2f2f5"/>
<rect x="208" y="128" width="16" height="16" fill="#f2f2f5"/>
<rect x="112" y="144" width="16" height="16" fill="#f2f2f5"/>
<rect x="128" y="144" width="16" height="16" fill="#f2f2f5"/>
<rect x="144" y="144" width="16" height="16" fill="#f2f2f5"/>
<rect x="160" y="144" width="16" height="16" fill="#f2f2f5"/>
<rect x="176" y="144" width="16" height="16" fill="#f2f2f5"/>
<rect x="192" y="144" width="16" height="16" fill="#f2f2f5"/>
<rect x="208" y="144" width="16" height="16" fill="#f2f2f5"/>
<rect x="112" y="160" width="16" height="16" fill="#f2f2f5"/>
<rect x="128" y="160" width="16" height="16" fill="#f2f2f5"/>
<rect x="144" y="160" width="16" height="16" fill="#f2f2f5"/>
<rect x="160" y="160" width="16" height="16" fill="#f2f2f5"/>
<rect x="176" y="160" width="16" height="16" fill="#f2f2f5"/>
<rect x="192" y="160" width="16" height="16" fill="#f2f2f5"/>
<rect x="208" y="160" width="16" height="16" fill="#f2f2f5"/>
<rect x="112" y="176" width="16" height="16" fill="#f2f2f5"/>
<rect x="128" y="176" width="16" height="16" fill="#f2f2f5"/>
<rect x="144" y="176" width="16" height="16" fill="#f2f2f5"/>
<rect x="160" y="176" width="16" height="16" fill="#f2f2f5"/>
<rect x="176" y="176" width="16" height="16" fill="#f2f2f5"/>
<rect x="192" y="176" width="16" height="16" fill="#f2f2f5"/>
<rect x="208" y="176" width="16" height="16" fill="#f2f2f5"/>
<rect x="112" y="192" width="16" height="16" fill="#f2f2f5"/>
<rect x="128" y="192" width="16" height="16" fill="#f2f2f5"/>
<rect x="144" y="192" width="16" height="16" fill="#f2f2f5"/>
<rect x="160" y="192" width="16" height="16" fill="#f2f2f5"/>
<rect x="176" y="192" width="16" height="16" fill="#f2f2f5"/>
<rect x="192" y="192" width="16" height="16" fill="#f2f2f5"/>
<rect x="208" y="192" width="16" height="16" fill="#f2f2f5"/>
<rect x="112" y="208" width="16" height="16" fill="#f2f2f5"/>
<rect x="128" y="208" width="16" height="16" fill="#f2f2f5"/>
<rect x="144" y="208" width="16" height="16" fill="#f2f2f5"/>
<rect x="160" y="208" width="16" height="16" fill="#f2f2f5"/>
<rect x="176" y="208" width="16" height="16" fill="#f2f2f5"/>
<rect x="192" y="208" width="16" height="16" fill="#f2f2f5"/>
<rect x="208" y="208" width="16" height="16" fill="#3498db"/>
</svg>